<svg width="30" height="30" viewBox="0 0 30 30" fill="none" xmlns="http://www.w3.org/2000/svg">
<path d="M14.9999 0.5C23.0085 0.5 29.5 6.99237 29.5 15.0001C29.5 23.0086 23.0085 29.5 14.9999 29.5C6.99136 29.5 0.5 23.0085 0.5 15.0001C0.5 6.99237 6.99148 0.5 14.9999 0.5Z" fill="#F8FDFF"/>
<path d="M14.9999 0.5C23.0085 0.5 29.5 6.99237 29.5 15.0001C29.5 23.0086 23.0085 29.5 14.9999 29.5C6.99136 29.5 0.5 23.0085 0.5 15.0001C0.5 6.99237 6.99148 0.5 14.9999 0.5Z" stroke="black"/>
<path d="M14.9999 0.5C23.0085 0.5 29.5 6.99237 29.5 15.0001C29.5 23.0086 23.0085 29.5 14.9999 29.5C6.99136 29.5 0.5 23.0085 0.5 15.0001C0.5 6.99237 6.99148 0.5 14.9999 0.5Z" stroke="black" stroke-opacity="0.2"/>
<path d="M10.9282 18.3967C11.105 18.4791 11.2 18.4434 11.2407 18.2719L11.1504 17.9482C11.1502 17.9482 11.1461 17.9467 11.1385 17.945L11.0119 18.2169L11.0115 18.2176L10.9282 18.3967ZM10.9282 18.3967L11.0115 18.2176L11.0119 18.2169L11.1384 17.945M10.9282 18.3967C9.7604 17.8531 9.03108 16.1462 9.03108 14.775C9.03108 11.8264 11.1725 9.11855 15.2072 9.11855C18.4502 9.11855 20.9706 11.4289 20.9706 14.5177C20.9706 17.7394 18.9383 20.332 16.1192 20.332L11.1384 17.945M11.1384 17.945C11.1349 17.9441 11.1306 17.9433 11.1256 17.9425C11.0968 17.9378 11.0314 17.9331 10.9523 17.9643C10.8091 18.0207 10.7636 18.1292 10.7547 18.1551C10.7546 18.1557 10.7544 18.1562 10.7542 18.1567C10.7541 18.1572 10.7539 18.1577 10.7538 18.1582M11.1384 17.945L10.7538 18.1582M10.7538 18.1582C10.7533 18.16 10.753 18.1608 10.753 18.1608C10.753 18.1608 10.7532 18.1599 10.7538 18.1582ZM12.0543 23.2479C11.9952 22.5519 11.9746 21.7302 12.1131 21.1369L12.1132 21.1366C12.1978 20.7731 12.4716 19.6124 12.7246 18.5414L13.0616 17.1151L13.1689 16.6613L13.1986 16.5358L13.2064 16.5029L13.2084 16.4945L13.2089 16.4923L13.209 16.4918L13.2091 16.4917L12.7225 16.3765L13.2091 16.4916L13.2508 16.3151L13.1709 16.1554C13.1711 16.1558 13.171 16.1556 13.1707 16.1549L13.166 16.1447C13.1611 16.134 13.153 16.1155 13.1427 16.0898C13.1221 16.0383 13.0927 15.9585 13.0629 15.8547C13.003 15.6465 12.9423 15.3467 12.9423 14.989C12.9423 13.8255 13.5934 13.2191 14.1338 13.2191C14.3949 13.2191 14.544 13.3105 14.6376 13.4249C14.7423 13.5527 14.8167 13.7597 14.8167 14.0353C14.8167 14.3538 14.7118 14.788 14.5494 15.333C14.5078 15.4728 14.4625 15.6194 14.4158 15.7704C14.2904 16.1765 14.1553 16.6138 14.0559 17.0319L14.0557 17.0324C13.753 18.3112 14.722 19.3375 15.9265 19.3375C16.9512 19.3375 17.8271 18.7923 18.4284 17.9317C19.026 17.0763 19.3646 15.9002 19.3646 14.5567C19.3646 13.3138 18.9157 12.2302 18.1223 11.4575C17.3299 10.6858 16.224 10.2532 14.9601 10.2532C12.0031 10.2532 10.2396 12.4944 10.2396 14.8106C10.2396 15.6771 10.5529 16.6108 10.9919 17.1882C10.9577 17.3293 10.9125 17.5129 10.8703 17.6842C10.8632 17.7131 10.8561 17.7417 10.8492 17.7697C10.5199 17.5269 10.2228 17.1472 9.99019 16.6752C9.69385 16.0739 9.53108 15.3797 9.53108 14.775C9.53108 13.4215 10.0219 12.1377 10.9607 11.1936C11.8957 10.2533 13.3068 9.61855 15.2072 9.61855C18.2085 9.61855 20.4706 11.7383 20.4706 14.5177C20.4706 17.5614 18.5734 19.832 16.1192 19.832C15.7295 19.832 15.3485 19.7301 15.0367 19.5691C14.7185 19.4047 14.5113 19.1999 14.4205 19.0267L13.8217 17.8835L13.494 19.1317L13.9776 19.2587L13.494 19.1317L13.4939 19.1318L13.4939 19.132L13.4936 19.133L13.4926 19.1368L13.4887 19.1519L13.4736 19.2093L13.419 19.4174L13.2454 20.0789C13.1141 20.5796 12.9683 21.1357 12.9112 21.3549L12.9111 21.3552C12.7596 21.9382 12.3938 22.6589 12.0543 23.2479Z" fill="#041827"/>
<path d="M10.9282 18.3967C11.105 18.4791 11.2 18.4434 11.2407 18.2719L11.1504 17.9482C11.1502 17.9482 11.1461 17.9467 11.1385 17.945L11.0119 18.2169L11.0115 18.2176L10.9282 18.3967ZM10.9282 18.3967L11.0115 18.2176L11.0119 18.2169L11.1384 17.945M10.9282 18.3967C9.7604 17.8531 9.03108 16.1462 9.03108 14.775C9.03108 11.8264 11.1725 9.11855 15.2072 9.11855C18.4502 9.11855 20.9706 11.4289 20.9706 14.5177C20.9706 17.7394 18.9383 20.332 16.1192 20.332L11.1384 17.945M11.1384 17.945C11.1349 17.9441 11.1306 17.9433 11.1256 17.9425C11.0968 17.9378 11.0314 17.9331 10.9523 17.9643C10.8091 18.0207 10.7636 18.1292 10.7547 18.1551C10.7546 18.1557 10.7544 18.1562 10.7542 18.1567C10.7541 18.1572 10.7539 18.1577 10.7538 18.1582M11.1384 17.945L10.7538 18.1582M10.7538 18.1582C10.7533 18.16 10.753 18.1608 10.753 18.1608C10.753 18.1608 10.7532 18.1599 10.7538 18.1582ZM12.0543 23.2479C11.9952 22.5519 11.9746 21.7302 12.1131 21.1369L12.1132 21.1366C12.1978 20.7731 12.4716 19.6124 12.7246 18.5414L13.0616 17.1151L13.1689 16.6613L13.1986 16.5358L13.2064 16.5029L13.2084 16.4945L13.2089 16.4923L13.209 16.4918L13.2091 16.4917L12.7225 16.3765L13.2091 16.4916L13.2508 16.3151L13.1709 16.1554C13.1711 16.1558 13.171 16.1556 13.1707 16.1549L13.166 16.1447C13.1611 16.134 13.153 16.1155 13.1427 16.0898C13.1221 16.0383 13.0927 15.9585 13.0629 15.8547C13.003 15.6465 12.9423 15.3467 12.9423 14.989C12.9423 13.8255 13.5934 13.2191 14.1338 13.2191C14.3949 13.2191 14.544 13.3105 14.6376 13.4249C14.7423 13.5527 14.8167 13.7597 14.8167 14.0353C14.8167 14.3538 14.7118 14.788 14.5494 15.333C14.5078 15.4728 14.4625 15.6194 14.4158 15.7704C14.2904 16.1765 14.1553 16.6138 14.0559 17.0319L14.0557 17.0324C13.753 18.3112 14.722 19.3375 15.9265 19.3375C16.9512 19.3375 17.8271 18.7923 18.4284 17.9317C19.026 17.0763 19.3646 15.9002 19.3646 14.5567C19.3646 13.3138 18.9157 12.2302 18.1223 11.4575C17.3299 10.6858 16.224 10.2532 14.9601 10.2532C12.0031 10.2532 10.2396 12.4944 10.2396 14.8106C10.2396 15.6771 10.5529 16.6108 10.9919 17.1882C10.9577 17.3293 10.9125 17.5129 10.8703 17.6842C10.8632 17.7131 10.8561 17.7417 10.8492 17.7697C10.5199 17.5269 10.2228 17.1472 9.99019 16.6752C9.69385 16.0739 9.53108 15.3797 9.53108 14.775C9.53108 13.4215 10.0219 12.1377 10.9607 11.1936C11.8957 10.2533 13.3068 9.61855 15.2072 9.61855C18.2085 9.61855 20.4706 11.7383 20.4706 14.5177C20.4706 17.5614 18.5734 19.832 16.1192 19.832C15.7295 19.832 15.3485 19.7301 15.0367 19.5691C14.7185 19.4047 14.5113 19.1999 14.4205 19.0267L13.8217 17.8835L13.494 19.1317L13.9776 19.2587L13.494 19.1317L13.4939 19.1318L13.4939 19.132L13.4936 19.133L13.4926 19.1368L13.4887 19.1519L13.4736 19.2093L13.419 19.4174L13.2454 20.0789C13.1141 20.5796 12.9683 21.1357 12.9112 21.3549L12.9111 21.3552C12.7596 21.9382 12.3938 22.6589 12.0543 23.2479Z" stroke="black"/>
<path d="M10.9282 18.3967C11.105 18.4791 11.2 18.4434 11.2407 18.2719L11.1504 17.9482C11.1502 17.9482 11.1461 17.9467 11.1385 17.945L11.0119 18.2169L11.0115 18.2176L10.9282 18.3967ZM10.9282 18.3967L11.0115 18.2176L11.0119 18.2169L11.1384 17.945M10.9282 18.3967C9.7604 17.8531 9.03108 16.1462 9.03108 14.775C9.03108 11.8264 11.1725 9.11855 15.2072 9.11855C18.4502 9.11855 20.9706 11.4289 20.9706 14.5177C20.9706 17.7394 18.9383 20.332 16.1192 20.332L11.1384 17.945M11.1384 17.945C11.1349 17.9441 11.1306 17.9433 11.1256 17.9425C11.0968 17.9378 11.0314 17.9331 10.9523 17.9643C10.8091 18.0207 10.7636 18.1292 10.7547 18.1551C10.7546 18.1557 10.7544 18.1562 10.7542 18.1567C10.7541 18.1572 10.7539 18.1577 10.7538 18.1582M11.1384 17.945L10.7538 18.1582M10.7538 18.1582C10.7533 18.16 10.753 18.1608 10.753 18.1608C10.753 18.1608 10.7532 18.1599 10.7538 18.1582ZM12.0543 23.2479C11.9952 22.5519 11.9746 21.7302 12.1131 21.1369L12.1132 21.1366C12.1978 20.7731 12.4716 19.6124 12.7246 18.5414L13.0616 17.1151L13.1689 16.6613L13.1986 16.5358L13.2064 16.5029L13.2084 16.4945L13.2089 16.4923L13.209 16.4918L13.2091 16.4917L12.7225 16.3765L13.2091 16.4916L13.2508 16.3151L13.1709 16.1554C13.1711 16.1558 13.171 16.1556 13.1707 16.1549L13.166 16.1447C13.1611 16.134 13.153 16.1155 13.1427 16.0898C13.1221 16.0383 13.0927 15.9585 13.0629 15.8547C13.003 15.6465 12.9423 15.3467 12.9423 14.989C12.9423 13.8255 13.5934 13.2191 14.1338 13.2191C14.3949 13.2191 14.544 13.3105 14.6376 13.4249C14.7423 13.5527 14.8167 13.7597 14.8167 14.0353C14.8167 14.3538 14.7118 14.788 14.5494 15.333C14.5078 15.4728 14.4625 15.6194 14.4158 15.7704C14.2904 16.1765 14.1553 16.6138 14.0559 17.0319L14.0557 17.0324C13.753 18.3112 14.722 19.3375 15.9265 19.3375C16.9512 19.3375 17.8271 18.7923 18.4284 17.9317C19.026 17.0763 19.3646 15.9002 19.3646 14.5567C19.3646 13.3138 18.9157 12.2302 18.1223 11.4575C17.3299 10.6858 16.224 10.2532 14.9601 10.2532C12.0031 10.2532 10.2396 12.4944 10.2396 14.8106C10.2396 15.6771 10.5529 16.6108 10.9919 17.1882C10.9577 17.3293 10.9125 17.5129 10.8703 17.6842C10.8632 17.7131 10.8561 17.7417 10.8492 17.7697C10.5199 17.5269 10.2228 17.1472 9.99019 16.6752C9.69385 16.0739 9.53108 15.3797 9.53108 14.775C9.53108 13.4215 10.0219 12.1377 10.9607 11.1936C11.8957 10.2533 13.3068 9.61855 15.2072 9.61855C18.2085 9.61855 20.4706 11.7383 20.4706 14.5177C20.4706 17.5614 18.5734 19.832 16.1192 19.832C15.7295 19.832 15.3485 19.7301 15.0367 19.5691C14.7185 19.4047 14.5113 19.1999 14.4205 19.0267L13.8217 17.8835L13.494 19.1317L13.9776 19.2587L13.494 19.1317L13.4939 19.1318L13.4939 19.132L13.4936 19.133L13.4926 19.1368L13.4887 19.1519L13.4736 19.2093L13.419 19.4174L13.2454 20.0789C13.1141 20.5796 12.9683 21.1357 12.9112 21.3549L12.9111 21.3552C12.7596 21.9382 12.3938 22.6589 12.0543 23.2479Z" stroke="black" stroke-opacity="0.2"/>
</svg>
