<svg width="38" height="38" viewBox="0 0 38 38" fill="none" xmlns="http://www.w3.org/2000/svg">
<g filter="url(#filter0_d_24848_16)">
<path d="M18.9999 0C27.2847 0 34 6.71625 34 15.0001C34 23.2848 27.2847 30 18.9999 30C10.7152 30 4 23.2847 4 15.0001C4 6.71625 10.7153 0 18.9999 0Z" fill="#F8FDFF"/>
<path d="M19 5C13.4823 5 9 9.4823 9 15C9 20.5177 13.4823 25 19 25C24.5177 25 29 20.5177 29 15C29 9.4823 24.5177 5 19 5ZM19 5.86957C24.0477 5.86957 28.1304 9.95225 28.1304 15C28.1304 20.0477 24.0477 24.1304 19 24.1304C18.0767 24.1304 17.186 23.9922 16.3463 23.7381C16.7203 23.1128 17.2032 22.219 17.395 21.481C17.509 21.0434 17.9776 19.2587 17.9776 19.2587C18.2821 19.84 19.1719 20.332 20.1192 20.332C22.9383 20.332 24.9706 17.7394 24.9706 14.5177C24.9706 11.4289 22.4502 9.11855 19.2072 9.11855C15.1725 9.11855 13.0311 11.8264 13.0311 14.775C13.0311 16.1462 13.7604 17.8531 14.9282 18.3967C15.105 18.4791 15.2 18.4434 15.2407 18.2719C15.2719 18.1418 15.4297 17.5073 15.5005 17.2121C15.5232 17.1179 15.5122 17.0365 15.436 16.9438C15.0495 16.475 14.7396 15.6138 14.7396 14.8106C14.7396 12.7487 16.3006 10.7532 18.9601 10.7532C21.2564 10.7532 22.8646 12.3186 22.8646 14.5567C22.8646 17.0853 21.5879 18.8375 19.9265 18.8375C19.0089 18.8375 18.3219 18.0784 18.5423 17.1476C18.8065 16.0366 19.3167 14.8378 19.3167 14.0353C19.3167 13.3177 18.9316 12.7191 18.1338 12.7191C17.1958 12.7191 16.4423 13.6889 16.4423 14.989C16.4423 15.8162 16.7225 16.3765 16.7225 16.3765C16.7225 16.3765 15.7959 20.2941 15.6262 21.0233C15.4561 21.7519 15.5017 22.7332 15.5718 23.4638C12.2266 22.1098 9.86957 18.8345 9.86957 15C9.86957 9.95225 13.9522 5.86957 19 5.86957Z" fill="#041827"/>
</g>
<defs>
<filter id="filter0_d_24848_16" x="0" y="0" width="38" height="38" filterUnits="userSpaceOnUse" color-interpolation-filters="sRGB">
<feFlood flood-opacity="0" result="BackgroundImageFix"/>
<feColorMatrix in="SourceAlpha" type="matrix" values="0 0 0 0 0 0 0 0 0 0 0 0 0 0 0 0 0 0 127 0" result="hardAlpha"/>
<feOffset dy="4"/>
<feGaussianBlur stdDeviation="2"/>
<feComposite in2="hardAlpha" operator="out"/>
<feColorMatrix type="matrix" values="0 0 0 0 0 0 0 0 0 0 0 0 0 0 0 0 0 0 0.25 0"/>
<feBlend mode="normal" in2="BackgroundImageFix" result="effect1_dropShadow_24848_16"/>
<feBlend mode="normal" in="SourceGraphic" in2="effect1_dropShadow_24848_16" result="shape"/>
</filter>
</defs>
</svg>
